<?xml version="1.0" encoding="UTF-8" standalone="no"?>
<!-- Created with Inkscape (http://www.inkscape.org/) -->

<svg
   width="24.127998mm"
   height="34.074234mm"
   viewBox="0 0 24.127998 34.074234"
   version="1.1"
   id="svg5"
   inkscape:version="1.2.2 (732a01da63, 2022-12-09)"
   xml:space="preserve"
   sodipodi:docname="owl.svg"
   xmlns:inkscape="http://www.inkscape.org/namespaces/inkscape"
   xmlns:sodipodi="http://sodipodi.sourceforge.net/DTD/sodipodi-0.dtd"
   xmlns="http://www.w3.org/2000/svg"
   xmlns:svg="http://www.w3.org/2000/svg"><sodipodi:namedview
     id="namedview7"
     pagecolor="#ffffff"
     bordercolor="#eeeeee"
     borderopacity="1"
     inkscape:showpageshadow="0"
     inkscape:pageopacity="0"
     inkscape:pagecheckerboard="0"
     inkscape:deskcolor="#cccccc"
     inkscape:document-units="mm"
     showgrid="false"
     inkscape:zoom="1.0717508"
     inkscape:cx="369.9554"
     inkscape:cy="524.84215"
     inkscape:window-width="1920"
     inkscape:window-height="991"
     inkscape:window-x="-9"
     inkscape:window-y="-9"
     inkscape:window-maximized="1"
     inkscape:current-layer="layer1" /><defs
     id="defs2"><linearGradient
       id="linearGradient10815"
       inkscape:swatch="solid"><stop
         style="stop-color:#93142c;stop-opacity:1;"
         offset="0"
         id="stop10813" /></linearGradient></defs><g
     inkscape:label="Layer 1"
     inkscape:groupmode="layer"
     id="layer1"
     transform="translate(-48.246171,-202.55804)"><path
       style="fill:#000000;fill-opacity:1;stroke:#ffffff;stroke-width:0.0308637;stroke-miterlimit:0;stroke-dasharray:none;stroke-opacity:1"
       d="m 58.39278,206.93325 c -0.42915,0.60318 -0.91642,1.0581 -0.86604,1.61235 0.12596,1.02285 1.01277,0.97751 1.61237,2.21702 0.45641,-0.99299 0.54914,-0.9468 0.67456,-1.75346 -0.0125,-0.85276 -0.95488,-1.40346 -1.42089,-2.07591 z"
       id="path23137"
       sodipodi:nodetypes="ccccc" /><path
       style="fill:#000000;fill-opacity:1;stroke:#ffffff;stroke-width:0.0308637;stroke-miterlimit:0;stroke-dasharray:none;stroke-opacity:1"
       d="m 56.79614,208.31383 c -0.35733,0.59345 0.13835,2.10474 0.85657,2.63522 0.70122,0.4658 1.174,1.16392 1.24958,1.64762 0.19651,-0.17635 0.51543,-1.23967 -0.26705,-2.13133 -0.73119,-0.87043 -1.47487,-0.86959 -1.8391,-2.15151 z"
       id="path23139"
       sodipodi:nodetypes="ccccc" /><path
       id="path23141"
       style="fill:#000000;fill-opacity:1;stroke:#ffffff;stroke-width:0.0308637;stroke-miterlimit:0;stroke-dasharray:none;stroke-opacity:1"
       d="m 53.86976,209.66327 c -0.12826,0.50593 -0.79815,2.60079 0.29921,3.67677 1.09736,1.07599 2.86416,1.48951 4.09691,-0.22065 0.0414,-0.88219 -0.61078,-1.51841 -1.33532,-1.92909 a 1.1094667,1.1137983 0 0 1 0.25373,0.70849 1.1094667,1.1137983 0 0 1 -1.10949,1.11363 1.1094667,1.1137983 0 0 1 -1.1095,-1.11363 1.1094667,1.1137983 0 0 1 1.1095,-1.11415 c -0.84152,-0.37999 -1.87622,-0.8778 -2.20504,-1.12137 z" /><path
       style="fill:#000000;fill-opacity:1;stroke:#ffffff;stroke-width:0.0308637;stroke-miterlimit:0;stroke-dasharray:none;stroke-opacity:1"
       d="m 57.71821,211.43779 c -1.82906,-1.92531 -2.98987,-1.99277 -3.34566,-3.87975 -0.10565,-0.89057 0.35566,-2.00243 0.69829,-2.36521 -0.77918,-0.0259 -2.05138,1.17967 -2.14941,2.4559 0.0302,1.63253 2.73498,2.34329 4.79678,3.78906 z"
       id="path23143"
       sodipodi:nodetypes="ccccc" /><path
       style="fill:#000000;fill-opacity:1;stroke:#ffffff;stroke-width:0.0308637;stroke-miterlimit:0;stroke-dasharray:none;stroke-opacity:1"
       d="m 56.61294,209.97696 c -0.2494,-0.75532 -0.15676,-1.41801 -0.44892,-1.99519 -0.29215,-0.57719 -1.247,-1.07599 -1.04035,-2.42987 -0.44052,0.71227 -0.59856,1.3724 -0.21377,2.62226 0.35214,0.81782 0.99904,1.10449 1.70304,1.8028 z"
       id="path23145"
       sodipodi:nodetypes="csccc" /><path
       style="fill:#000000;fill-opacity:1;stroke:#ffffff;stroke-width:0.0308637;stroke-miterlimit:0;stroke-opacity:1"
       d="m 55.42563,206.41677 c 0.0361,-0.93267 0.38356,-1.2734 0.55677,-1.40074 -0.82628,0.20126 -0.75838,0.89559 -0.55677,1.40074 z"
       id="path23147"
       sodipodi:nodetypes="ccc" /><path
       style="fill:#000000;fill-opacity:1;stroke:#ffffff;stroke-width:0.0308637;stroke-miterlimit:0;stroke-opacity:1"
       d="m 57.31126,208.74777 c -0.13097,-0.65928 0.22358,-1.15236 0.2209,-1.64603 -0.16894,-0.95864 -0.80018,-0.80031 -1.47503,-1.81706 -0.20666,0.0568 -0.58742,0.69977 -0.42148,1.27194 0.12366,0.75345 0.82409,0.94772 0.88822,1.92393 0.13744,-0.41329 0.10372,-0.54155 0.22446,-0.64843 0.0609,-0.0709 0.10192,0.66978 0.56293,0.91565 z"
       id="path23149"
       sodipodi:nodetypes="ccccccc" /><path
       style="fill:#000000;fill-opacity:1;stroke:#ffffff;stroke-width:0.0308637;stroke-miterlimit:0;stroke-opacity:1"
       d="m 57.36046,206.13209 c -0.2115,-0.64678 0.50865,-1.42408 1.41586,-1.60229 -2.66895,-0.28015 -3.03506,0.64718 -1.41586,1.60229 z"
       id="path23151"
       sodipodi:nodetypes="ccc" /><path
       style="fill:#000000;fill-opacity:1;stroke:#ffffff;stroke-width:0.0308637;stroke-miterlimit:0;stroke-opacity:1"
       d="m 59.08368,207.23555 c -0.30438,-0.98139 0.26316,-1.76256 1.03292,-2.5949 -1.80144,-0.0809 -2.81449,0.83641 -2.29762,2.33793 0.4287,-0.0177 0.42325,-0.39418 0.5744,-0.55609 0.23682,0.50181 0.6903,0.81306 0.6903,0.81306 z"
       id="path23153"
       sodipodi:nodetypes="ccccc" /><path
       style="fill:#000000;fill-opacity:1;stroke:#ffffff;stroke-width:0.0308637;stroke-miterlimit:0;stroke-opacity:1"
       d="m 48.28298,202.58046 c 1.56172,0.32218 2.72155,1.53368 4.06878,1.99521 2.2945,1.68088 -0.8471,1.86794 0.55424,4.22555 1.19978,1.52119 -0.44491,2.79474 0.93503,4.71722 2.31714,2.32556 3.85978,0.27028 4.20185,0.28309 1.46065,-0.55151 1.39184,1.76912 0.38002,2.40331 -2.20097,1.2086 -4.47933,-0.31059 -5.4583,-1.79569 -1.72468,-3.04707 -1.53492,-6.19649 -2.86036,-7.95643 0.29014,-0.0748 2.09465,1.09996 1.94115,3.63825 1.0864,-4.79696 -3.76238,-7.51051 -3.76238,-7.51051 z"
       id="path23155"
       sodipodi:nodetypes="ccccccccccc" /><path
       style="fill:#000000;fill-opacity:1;stroke:#ffffff;stroke-width:0.0308637;stroke-miterlimit:0;stroke-opacity:1"
       d="m 51.42998,211.65948 c 0.67518,3.1038 2.52985,5.0659 4.56501,5.2402 2.21038,0.18929 2.49917,0.3527 2.94257,1.10849 -0.95735,-0.60464 -1.6873,-0.68281 -3.59759,-0.82634 -2.38447,-0.17915 -4.7464,-2.26739 -3.90999,-5.52235 z"
       id="path23157"
       sodipodi:nodetypes="cscsc" /><path
       style="fill:#000000;fill-opacity:1;stroke:#ffffff;stroke-width:0.0308637;stroke-miterlimit:0;stroke-opacity:1"
       d="m 51.17805,214.00749 c 0.71549,2.90521 3.32556,3.53782 4.27277,3.46659 1.68724,-0.12689 3.21465,0.59455 3.70844,0.8868 -1.90461,-0.51395 -2.32841,8.6e-4 -3.77898,-0.0404 -3.9095,-0.11111 -4.80921,-2.60968 -4.20223,-4.31308 z"
       id="path23159"
       sodipodi:nodetypes="cscscc" /><path
       style="fill:#000000;fill-opacity:1;stroke:#ffffff;stroke-width:0.0308637;stroke-miterlimit:0;stroke-opacity:1"
       d="m 59.60266,219.06629 c -0.90696,-0.74573 -3.04094,-0.5706 -4.303,-0.52402 -3.27512,0.12086 -3.72556,-1.87174 -4.12161,-1.70306 -0.42325,0.36278 1.24959,2.74102 3.42627,2.71078 2.21701,-0.01 2.77126,-1.08835 4.99834,-0.4837 z"
       id="path23161"
       sodipodi:nodetypes="csccc" /><path
       style="fill:#000000;fill-opacity:1;stroke:#ffffff;stroke-width:0.0308637;stroke-miterlimit:0;stroke-opacity:1"
       d="m 60.2043,219.5468 c -0.15677,-1.52491 -0.65557,-4.04741 -0.90497,-4.67447 -0.14251,0.60568 -0.16389,1.26837 -1.21137,1.80281 1.01185,0.76957 1.84556,1.93819 2.11634,2.87166 z"
       id="path23163"
       sodipodi:nodetypes="cccc" /><path
       style="fill:#000000;fill-opacity:1;stroke:#ffffff;stroke-width:0.0308637;stroke-miterlimit:0;stroke-opacity:1"
       d="m 48.2616,222.68923 c 0.80667,-1.8193 1.60081,-0.8804 3.09256,-2.59375 0.51097,-0.58687 0.057,-2.11634 -0.59856,-2.50115 -0.9976,2.05223 -2.45124,2.44414 -2.494,5.0949 z"
       id="path23165"
       sodipodi:nodetypes="cscc" /><path
       style="fill:#000000;fill-opacity:1;stroke:#ffffff;stroke-width:0.0308637;stroke-miterlimit:0;stroke-opacity:1"
       d="m 54.93127,219.75343 c -2.28023,0.0143 -1.80281,-0.57717 -2.58663,-0.65555 -0.8159,0.2601 -0.84001,3.0639 0.22802,5.15901 0.21584,-2.03614 1.02214,-3.67436 2.35861,-4.50346 z"
       id="path23167"
       sodipodi:nodetypes="cccc" /><path
       style="fill:#000000;fill-opacity:1;stroke:#ffffff;stroke-width:0.0308637;stroke-miterlimit:0;stroke-opacity:1"
       d="m 50.81973,226.50149 c -0.0998,-1.34676 0.63176,-1.68184 0.57718,-3.05693 -0.43467,-2.73629 -0.0499,-2.12347 -0.25652,-2.47263 -0.11326,-0.23842 -1.76718,0.97623 -1.63891,2.70066 0.12826,1.72442 0.71969,1.93106 1.31825,2.8289 z"
       id="path23169"
       sodipodi:nodetypes="cccsc" /><path
       style="fill:#000000;fill-opacity:1;stroke:#ffffff;stroke-width:0.0308637;stroke-miterlimit:0;stroke-opacity:1"
       d="m 51.46817,228.25442 c -0.37766,-1.46077 -1.62466,-2.05221 -2.05933,-3.47735 -0.20664,-0.78383 -0.46317,-1.89544 0.14964,-3.09256 -0.5273,0.41329 -1.94532,1.31825 -0.92634,3.48448 1.5819,2.51537 2.28735,2.30873 2.83603,3.08543 z"
       id="path23171"
       sodipodi:nodetypes="ccccc" /><path
       style="fill:#000000;fill-opacity:1;stroke:#ffffff;stroke-width:0.0308637;stroke-miterlimit:0;stroke-opacity:1"
       d="m 51.66176,223.4096 c 0.9446,1.35431 1.36546,3.28104 1.53175,3.78905 0.24185,0.89688 1.83406,2.35808 1.88445,4.53478 -0.43332,-1.70306 -0.87672,-1.5116 -2.59994,-3.32551 -1.89453,-1.93484 -1.27981,-2.97279 -1.05812,-3.61774 0.26202,-0.84649 0.29225,-0.71549 0.24186,-1.38058 z"
       id="path23173"
       sodipodi:nodetypes="cccccc" /><path
       style="fill:#000000;fill-opacity:1;stroke:#ffffff;stroke-width:0.0308637;stroke-miterlimit:0;stroke-opacity:1"
       d="m 54.83151,232.73648 c 0.12113,-1.11873 -0.86221,-2.4441 -1.13299,-2.65076 -0.27078,-0.20665 -1.56766,-1.42515 -1.93107,-1.88831 -0.36341,-0.46317 0.74108,1.53204 1.58904,2.16621 0.84796,0.6342 1.35388,1.81706 1.47502,2.37286 z"
       id="path23175" /><path
       style="fill:#000000;fill-opacity:1;stroke:#ffffff;stroke-width:0.0308637;stroke-miterlimit:0;stroke-opacity:1"
       d="m 54.87426,226.94328 c 1.44652,1.94532 1.11874,2.67214 1.30401,3.58424 -0.83371,-0.66269 -1.23988,-2.45124 -1.30401,-3.58424 z"
       id="path23177"
       sodipodi:nodetypes="ccc" /><path
       style="fill:#000000;fill-opacity:1;stroke:#ffffff;stroke-width:0.0308637;stroke-miterlimit:0;stroke-opacity:1"
       d="m 56.16772,227.70786 c 1.44652,1.94532 1.11874,2.67214 1.30401,3.58424 -0.83371,-0.66269 -1.23988,-2.45124 -1.30401,-3.58424 z"
       id="path23179"
       sodipodi:nodetypes="ccc" /><path
       style="fill:#000000;fill-opacity:1;stroke:#ffffff;stroke-width:0.0308637;stroke-miterlimit:0;stroke-opacity:1"
       d="m 57.56436,229.31116 c 1.59616,2.17333 0.9976,2.11633 1.30401,3.58424 -0.83371,-0.6627 -1.23988,-2.45125 -1.30401,-3.58424 z"
       id="path23181"
       sodipodi:nodetypes="ccc" /><path
       style="fill:#000000;fill-opacity:1;stroke:#ffffff;stroke-width:0.0308637;stroke-miterlimit:0;stroke-opacity:1"
       d="m 54.7745,229.20926 c 0.11402,-0.5558 -0.99047,-2.95004 -1.03323,-3.9334 -0.11401,-1.26123 -0.32065,-4.2113 2.41562,-5.67207 -2.20184,0.42754 -3.27783,3.24934 -3.23507,4.71724 0.0356,2.71489 1.7545,4.28625 1.85268,4.88823 z"
       id="path23183"
       sodipodi:nodetypes="ccccc" /><path
       style="fill:#000000;fill-opacity:1;stroke:#ffffff;stroke-width:0.0308637;stroke-miterlimit:0;stroke-opacity:1"
       d="m 55.7436,227.62022 c -0.7646,-1.47159 -1.47797,-2.99328 -1.34676,-5.28727 -0.42304,1.9284 -0.2841,3.79294 1.34676,5.28727 z"
       id="path23185"
       sodipodi:nodetypes="ccc" /><path
       style="fill:#000000;fill-opacity:1;stroke:#ffffff;stroke-width:0.0308637;stroke-miterlimit:0;stroke-opacity:1"
       d="m 55.29966,225.60644 c -0.62479,-1.66275 -0.94727,-2.76118 -0.30232,-4.36346 0.64495,-1.6023 2.44878,-1.96507 3.11388,-2.03561 0.20906,0.8416 0.0905,2.67533 -0.69533,3.63789 -0.38908,0.60372 -1.83623,1.74759 -2.11623,2.76118 z"
       id="path23187"
       sodipodi:nodetypes="ccccc" /><path
       style="fill:#000000;fill-opacity:1;stroke:#ffffff;stroke-width:0.0308637;stroke-miterlimit:0;stroke-opacity:1"
       d="m 58.77632,227.83353 c 0.19304,-2.71677 0.93837,-2.08219 1.01781,-3.42627 0.0202,-1.4713 -0.95734,-1.79376 -1.35036,-2.89219 -0.21162,1.13874 -1.24958,2.01545 -1.21935,2.95265 0.0209,1.42739 0.91453,1.90731 1.5519,3.36581 z"
       id="path23189"
       sodipodi:nodetypes="ccccc" /><path
       style="fill:#000000;fill-opacity:1;stroke:#ffffff;stroke-width:0.0308637;stroke-miterlimit:0;stroke-opacity:1"
       d="m 58.67555,228.21646 c -0.96211,-1.11874 -3.86127,-2.49079 -1.65268,-4.3937 -0.55425,1.78368 0.57441,2.61001 1.65268,4.3937 z"
       id="path23191"
       sodipodi:nodetypes="ccc" /><path
       style="fill:#000000;fill-opacity:1;stroke:#ffffff;stroke-width:0.0308637;stroke-miterlimit:0;stroke-opacity:1"
       d="m 60.30406,208.33805 c -0.061,0.63027 -0.18012,0.67308 -0.29312,0.85402 0.13415,-1.60209 -0.37081,-0.9915 -0.6546,-2.3148 0.007,-0.59856 0.71671,-1.84257 0.95899,-2.02071 0.15143,0.18932 0.91254,1.09513 0.90528,1.85004 -0.0112,1.16946 -0.67362,0.71854 -0.61166,2.46889 -0.0815,-0.18156 -0.23073,-0.16839 -0.30489,-0.83744 z"
       id="path23193"
       sodipodi:nodetypes="ccccscc" /><path
       style="fill:#000000;fill-opacity:1;stroke:#ffffff;stroke-width:0.0308637;stroke-miterlimit:0;stroke-opacity:1"
       d="m 60.30789,209.12366 c -0.0216,0.64238 -0.82283,1.06102 -0.88779,1.89829 -0.065,0.83725 0.44028,1.38581 0.89501,1.55181 0.51968,-0.0722 0.87955,-0.80122 0.91666,-1.40746 0.0433,-0.70735 -0.90222,-1.5446 -0.92388,-2.04264 z"
       id="path23195"
       sodipodi:nodetypes="cscsc" /><path
       style="fill:#000000;fill-opacity:1;stroke:#ffffff;stroke-width:0.0308637;stroke-miterlimit:0;stroke-opacity:1"
       d="m 59.28296,212.18401 c 0.33924,0.54133 0.62073,0.67126 1.00328,0.85169 0.3681,-0.17298 0.95996,-0.46915 1.04658,-0.86613 0.0361,0.25262 0.0434,0.45472 0.22375,0.83727 -0.84448,2.00656 -1.1765,4.91533 -1.2559,6.28671 -0.0433,-1.37138 -0.38976,-4.40285 -1.24868,-6.28671 0.1227,-0.25263 0.16601,-0.34645 0.23097,-0.82283 z"
       id="path23197"
       sodipodi:nodetypes="ccccccc" /><path
       style="fill:#000000;fill-opacity:1;stroke:#ffffff;stroke-width:0.0308637;stroke-miterlimit:0;stroke-opacity:1"
       d="m 60.29346,220.57832 c -0.64239,-0.54854 -1.47244,-1.29199 -1.72506,-1.1765 -0.59186,1.99928 1.2559,3.24802 1.73949,4.41008 0.67126,-1.11154 2.37801,-2.64981 1.73949,-4.4534 -0.50834,0.026 -1.11876,0.82284 -1.75392,1.21982 z"
       id="path23199"
       sodipodi:nodetypes="ccccc" /><path
       style="fill:#000000;fill-opacity:1;stroke:#ffffff;stroke-width:0.0308637;stroke-miterlimit:0;stroke-opacity:1"
       d="m 60.2913,224.0047 c -0.10636,0.0475 -0.0409,-0.0199 -0.0993,0.0458 -0.23695,1.7422 -1.06546,2.09091 -1.23425,3.82545 0.0405,1.10676 1.19523,1.35041 1.3501,4.87165 0.18038,-3.44539 1.30854,-3.83191 1.35695,-4.72767 -0.0792,-2.09514 -1.19218,-2.38621 -1.19816,-3.95536 -0.0605,-0.0343 -0.10301,-0.0495 -0.17538,-0.0599 z"
       id="path23201"
       sodipodi:nodetypes="cccccccc" /><path
       style="fill:#000000;fill-opacity:1;stroke:#ffffff;stroke-width:0.0308637;stroke-miterlimit:0;stroke-opacity:1"
       d="m 55.53213,225.24047 c -0.17354,1.36271 0.89805,2.40775 1.70465,3.18985 0.59149,0.94229 2.97039,1.40354 3.06226,8.20174 0.0359,-6.78699 2.311,-6.96161 2.76113,-7.8853 1.75205,-1.60049 2.01088,-2.35284 1.99558,-3.53181 -0.1276,1.15855 -1.47432,1.81914 -2.48043,2.84791 -1.97804,2.02257 -1.91391,3.76147 -2.24566,4.96595 -0.43382,-2.00067 -0.71963,-3.21027 -1.65362,-4.22081 -0.76246,-0.82497 -3.18985,-2.66927 -3.14391,-3.56753 z"
       id="path23203"
       sodipodi:nodetypes="cccccscsc" /><path
       style="fill:#000000;fill-opacity:1;stroke:#ffffff;stroke-width:0.0308637;stroke-miterlimit:0;stroke-dasharray:none;stroke-opacity:1"
       d="m 62.22756,206.92625 c 0.42915,0.60318 0.91642,1.0581 0.86604,1.61235 -0.12596,1.02285 -1.01277,0.97751 -1.61237,2.21702 -0.45641,-0.99299 -0.54914,-0.9468 -0.67456,-1.75346 0.0125,-0.85276 0.95488,-1.40346 1.42089,-2.07591 z"
       id="path23205"
       sodipodi:nodetypes="ccccc" /><path
       style="fill:#000000;fill-opacity:1;stroke:#ffffff;stroke-width:0.0308637;stroke-miterlimit:0;stroke-dasharray:none;stroke-opacity:1"
       d="m 63.8242,208.30683 c 0.35733,0.59345 -0.13835,2.10474 -0.85657,2.63522 -0.70122,0.4658 -1.174,1.16392 -1.24958,1.64762 -0.19651,-0.17635 -0.51543,-1.23967 0.26705,-2.13133 0.7312,-0.87043 1.47487,-0.86959 1.8391,-2.15151 z"
       id="path23207"
       sodipodi:nodetypes="ccccc" /><path
       id="path23209"
       style="fill:#000000;fill-opacity:1;stroke:#ffffff;stroke-width:0.0308637;stroke-miterlimit:0;stroke-dasharray:none;stroke-opacity:1"
       d="m 66.75063,209.65655 c -0.32882,0.24357 -1.36351,0.74138 -2.20503,1.12138 a 1.1094667,1.1137983 0 0 1 1.10949,1.11362 1.1094667,1.1137983 0 0 1 -1.10949,1.11363 1.1094667,1.1137983 0 0 1 -1.1095,-1.11363 1.1094667,1.1137983 0 0 1 0.25374,-0.70796 c -0.72455,0.41067 -1.37729,1.04689 -1.33584,1.92908 1.23275,1.71017 3.00007,1.29664 4.09742,0.22066 1.09736,-1.07598 0.42748,-3.17085 0.29921,-3.67678 z" /><path
       style="fill:#000000;fill-opacity:1;stroke:#ffffff;stroke-width:0.0308637;stroke-miterlimit:0;stroke-dasharray:none;stroke-opacity:1"
       d="m 62.90213,211.43079 c 1.82906,-1.92531 2.98987,-1.99277 3.34566,-3.87975 0.10565,-0.89057 -0.35566,-2.00243 -0.69829,-2.36521 0.77918,-0.0259 2.05138,1.17967 2.14941,2.4559 -0.0302,1.63253 -2.73498,2.34329 -4.79678,3.78906 z"
       id="path23211"
       sodipodi:nodetypes="ccccc" /><path
       style="fill:#000000;fill-opacity:1;stroke:#ffffff;stroke-width:0.0308637;stroke-miterlimit:0;stroke-dasharray:none;stroke-opacity:1"
       d="m 64.0074,209.96996 c 0.2494,-0.75532 0.15676,-1.41801 0.44892,-1.99519 0.29215,-0.57719 1.247,-1.07599 1.04035,-2.42987 0.44052,0.71227 0.59856,1.3724 0.21377,2.62226 -0.35214,0.81782 -0.99904,1.10449 -1.70304,1.8028 z"
       id="path23213"
       sodipodi:nodetypes="csccc" /><path
       style="fill:#000000;fill-opacity:1;stroke:#ffffff;stroke-width:0.0308637;stroke-miterlimit:0;stroke-opacity:1"
       d="m 65.19471,206.40977 c -0.0361,-0.93267 -0.38356,-1.2734 -0.55677,-1.40074 0.82628,0.20126 0.75837,0.89559 0.55677,1.40074 z"
       id="path23215"
       sodipodi:nodetypes="ccc" /><path
       style="fill:#000000;fill-opacity:1;stroke:#ffffff;stroke-width:0.0308637;stroke-miterlimit:0;stroke-opacity:1"
       d="m 63.30908,208.74077 c 0.13097,-0.65928 -0.22358,-1.15236 -0.2209,-1.64603 0.16894,-0.95864 0.80018,-0.80031 1.47503,-1.81706 0.20666,0.0568 0.58742,0.69977 0.42148,1.27194 -0.12366,0.75345 -0.82409,0.94772 -0.88821,1.92393 -0.13745,-0.41329 -0.10373,-0.54155 -0.22447,-0.64843 -0.0609,-0.0709 -0.10192,0.66978 -0.56293,0.91565 z"
       id="path23217"
       sodipodi:nodetypes="ccccccc" /><path
       style="fill:#000000;fill-opacity:1;stroke:#ffffff;stroke-width:0.0308637;stroke-miterlimit:0;stroke-opacity:1"
       d="m 63.25988,206.12509 c 0.2115,-0.64678 -0.50865,-1.42408 -1.41586,-1.60229 2.66895,-0.28015 3.03506,0.64718 1.41586,1.60229 z"
       id="path23219"
       sodipodi:nodetypes="ccc" /><path
       style="fill:#000000;fill-opacity:1;stroke:#ffffff;stroke-width:0.0308637;stroke-miterlimit:0;stroke-opacity:1"
       d="m 61.53666,207.22855 c 0.30438,-0.98139 -0.26316,-1.76256 -1.03292,-2.5949 1.80144,-0.0809 2.81449,0.83641 2.29762,2.33793 -0.4287,-0.0177 -0.42325,-0.39418 -0.57441,-0.55609 -0.23681,0.50181 -0.69029,0.81306 -0.69029,0.81306 z"
       id="path23221"
       sodipodi:nodetypes="ccccc" /><path
       style="fill:#000000;fill-opacity:1;stroke:#ffffff;stroke-width:0.0308637;stroke-miterlimit:0;stroke-opacity:1"
       d="m 72.33736,202.57346 c -1.56172,0.32218 -2.72155,1.53368 -4.06878,1.99521 -2.2945,1.68088 0.8471,1.86794 -0.55424,4.22555 -1.19979,1.52119 0.44491,2.79474 -0.93503,4.71722 -2.31714,2.32556 -3.85978,0.27028 -4.20185,0.28309 -1.46065,-0.55151 -1.39184,1.76912 -0.38002,2.40331 2.20097,1.2086 4.47933,-0.31059 5.4583,-1.79569 1.72468,-3.04707 1.53492,-6.19649 2.86036,-7.95643 -0.29014,-0.0748 -2.09465,1.09996 -1.94115,3.63825 -1.0864,-4.79696 3.76238,-7.51051 3.76238,-7.51051 z"
       id="path23223"
       sodipodi:nodetypes="ccccccccccc" /><path
       style="fill:#000000;fill-opacity:1;stroke:#ffffff;stroke-width:0.0308637;stroke-miterlimit:0;stroke-opacity:1"
       d="m 69.19036,211.65248 c -0.67518,3.1038 -2.52985,5.0659 -4.56501,5.2402 -2.21038,0.18929 -2.49917,0.3527 -2.94257,1.10849 0.95734,-0.60464 1.6873,-0.68281 3.59759,-0.82634 2.38447,-0.17915 4.7464,-2.26739 3.90999,-5.52235 z"
       id="path23225"
       sodipodi:nodetypes="cscsc" /><path
       style="fill:#000000;fill-opacity:1;stroke:#ffffff;stroke-width:0.0308637;stroke-miterlimit:0;stroke-opacity:1"
       d="m 69.44229,214.00049 c -0.71549,2.90521 -3.32556,3.53782 -4.27277,3.46659 -1.68724,-0.12689 -3.21465,0.59455 -3.70844,0.8868 1.90461,-0.51395 2.32841,8.6e-4 3.77898,-0.0404 3.9095,-0.11111 4.80921,-2.60968 4.20223,-4.31308 z"
       id="path23227"
       sodipodi:nodetypes="cscscc" /><path
       style="fill:#000000;fill-opacity:1;stroke:#ffffff;stroke-width:0.0308637;stroke-miterlimit:0;stroke-opacity:1"
       d="m 61.01768,219.05929 c 0.90696,-0.74573 3.04094,-0.5706 4.303,-0.52402 3.27512,0.12086 3.72556,-1.87174 4.12161,-1.70306 0.42325,0.36278 -1.24959,2.74102 -3.42628,2.71078 -2.217,-0.01 -2.77125,-1.08835 -4.99833,-0.4837 z"
       id="path23229"
       sodipodi:nodetypes="csccc" /><path
       style="fill:#000000;fill-opacity:1;stroke:#ffffff;stroke-width:0.0308637;stroke-miterlimit:0;stroke-opacity:1"
       d="m 60.41604,219.5398 c 0.15677,-1.52491 0.65557,-4.04741 0.90497,-4.67447 0.14251,0.60568 0.16389,1.26837 1.21137,1.80281 -1.01185,0.76957 -1.84556,1.93819 -2.11634,2.87166 z"
       id="path23231"
       sodipodi:nodetypes="cccc" /><path
       style="fill:#000000;fill-opacity:1;stroke:#ffffff;stroke-width:0.0308637;stroke-miterlimit:0;stroke-opacity:1"
       d="m 72.35874,222.68223 c -0.80667,-1.81929 -1.60081,-0.8804 -3.09256,-2.59375 -0.51097,-0.58687 -0.057,-2.11634 0.59856,-2.50115 0.9976,2.05223 2.45124,2.44414 2.494,5.0949 z"
       id="path23233"
       sodipodi:nodetypes="cscc" /><path
       style="fill:#000000;fill-opacity:1;stroke:#ffffff;stroke-width:0.0308637;stroke-miterlimit:0;stroke-opacity:1"
       d="m 65.68907,219.74643 c 2.28023,0.0143 1.80281,-0.57717 2.58663,-0.65555 0.8159,0.2601 0.84001,3.0639 -0.22802,5.15901 -0.21584,-2.03614 -1.02214,-3.67436 -2.35861,-4.50346 z"
       id="path23235"
       sodipodi:nodetypes="cccc" /><path
       style="fill:#000000;fill-opacity:1;stroke:#ffffff;stroke-width:0.0308637;stroke-miterlimit:0;stroke-opacity:1"
       d="m 69.80061,226.49449 c 0.0998,-1.34676 -0.63176,-1.68184 -0.57719,-3.05693 0.43468,-2.73629 0.0499,-2.12347 0.25653,-2.47263 0.11326,-0.23842 1.76718,0.97623 1.63891,2.70066 -0.12826,1.72442 -0.71969,1.93106 -1.31825,2.8289 z"
       id="path23237"
       sodipodi:nodetypes="cccsc" /><path
       style="fill:#000000;fill-opacity:1;stroke:#ffffff;stroke-width:0.0308637;stroke-miterlimit:0;stroke-opacity:1"
       d="m 69.15217,228.24742 c 0.37766,-1.46077 1.62466,-2.05221 2.05933,-3.47735 0.20664,-0.78383 0.46317,-1.89544 -0.14964,-3.09256 0.5273,0.41329 1.94532,1.31825 0.92634,3.48448 -1.58191,2.51537 -2.28735,2.30873 -2.83603,3.08543 z"
       id="path23239"
       sodipodi:nodetypes="ccccc" /><path
       style="fill:#000000;fill-opacity:1;stroke:#ffffff;stroke-width:0.0308637;stroke-miterlimit:0;stroke-opacity:1"
       d="m 68.95858,223.4026 c -0.9446,1.35431 -1.36546,3.28104 -1.53175,3.78905 -0.24185,0.89688 -1.83406,2.35808 -1.88445,4.53478 0.43332,-1.70306 0.87672,-1.5116 2.59994,-3.32551 1.89453,-1.93484 1.27981,-2.97279 1.05812,-3.61774 -0.26202,-0.84649 -0.29225,-0.71549 -0.24186,-1.38058 z"
       id="path23241"
       sodipodi:nodetypes="cccccc" /><path
       style="fill:#000000;fill-opacity:1;stroke:#ffffff;stroke-width:0.0308637;stroke-miterlimit:0;stroke-opacity:1"
       d="m 65.78883,232.72948 c -0.12113,-1.11873 0.86221,-2.4441 1.13299,-2.65076 0.27077,-0.20665 1.56766,-1.42515 1.93107,-1.88831 0.36341,-0.46317 -0.74108,1.53204 -1.58904,2.16621 -0.84796,0.6342 -1.35388,1.81706 -1.47502,2.37286 z"
       id="path23243" /><path
       style="fill:#000000;fill-opacity:1;stroke:#ffffff;stroke-width:0.0308637;stroke-miterlimit:0;stroke-opacity:1"
       d="m 65.74608,226.93628 c -1.44652,1.94532 -1.11874,2.67214 -1.30401,3.58424 0.83371,-0.66269 1.23988,-2.45124 1.30401,-3.58424 z"
       id="path23245"
       sodipodi:nodetypes="ccc" /><path
       style="fill:#000000;fill-opacity:1;stroke:#ffffff;stroke-width:0.0308637;stroke-miterlimit:0;stroke-opacity:1"
       d="m 64.45262,227.70086 c -1.44652,1.94532 -1.11874,2.67214 -1.30401,3.58424 0.83371,-0.66269 1.23988,-2.45124 1.30401,-3.58424 z"
       id="path23247"
       sodipodi:nodetypes="ccc" /><path
       style="fill:#000000;fill-opacity:1;stroke:#ffffff;stroke-width:0.0308637;stroke-miterlimit:0;stroke-opacity:1"
       d="m 63.05597,229.30416 c -1.59615,2.17333 -0.9976,2.11633 -1.304,3.58424 0.83371,-0.6627 1.23988,-2.45125 1.304,-3.58424 z"
       id="path23249"
       sodipodi:nodetypes="ccc" /><path
       style="fill:#000000;fill-opacity:1;stroke:#ffffff;stroke-width:0.0308637;stroke-miterlimit:0;stroke-opacity:1"
       d="m 65.84583,229.20226 c -0.11401,-0.5558 0.99048,-2.95004 1.03324,-3.9334 0.11401,-1.26123 0.32065,-4.2113 -2.41562,-5.67206 2.20184,0.42753 3.27783,3.24933 3.23507,4.71723 -0.0356,2.71489 -1.7545,4.28625 -1.85269,4.88823 z"
       id="path23251"
       sodipodi:nodetypes="ccccc" /><path
       style="fill:#000000;fill-opacity:1;stroke:#ffffff;stroke-width:0.0308637;stroke-miterlimit:0;stroke-opacity:1"
       d="m 64.87674,227.61322 c 0.7646,-1.47159 1.47797,-2.99328 1.34676,-5.28727 0.42304,1.9284 0.2841,3.79294 -1.34676,5.28727 z"
       id="path23253"
       sodipodi:nodetypes="ccc" /><path
       style="fill:#000000;fill-opacity:1;stroke:#ffffff;stroke-width:0.0308637;stroke-miterlimit:0;stroke-opacity:1"
       d="m 65.32068,225.59944 c 0.62479,-1.66275 0.94727,-2.76118 0.30232,-4.36346 -0.64495,-1.6023 -2.44878,-1.96507 -3.11388,-2.03561 -0.20906,0.8416 -0.0905,2.67533 0.69533,3.63789 0.38908,0.60372 1.83623,1.74759 2.11623,2.76118 z"
       id="path23255"
       sodipodi:nodetypes="ccccc" /><path
       style="fill:#000000;fill-opacity:1;stroke:#ffffff;stroke-width:0.0308637;stroke-miterlimit:0;stroke-opacity:1"
       d="m 61.84402,227.82653 c -0.19304,-2.71677 -0.93837,-2.08219 -1.01781,-3.42627 -0.0202,-1.4713 0.95734,-1.79376 1.35036,-2.89219 0.21162,1.13874 1.24958,2.01545 1.21935,2.95265 -0.0209,1.42739 -0.91453,1.90731 -1.5519,3.36581 z"
       id="path23257"
       sodipodi:nodetypes="ccccc" /><path
       style="fill:#000000;fill-opacity:1;stroke:#ffffff;stroke-width:0.0308637;stroke-miterlimit:0;stroke-opacity:1"
       d="m 61.94479,228.20946 c 0.96211,-1.11874 3.86127,-2.49079 1.65267,-4.3937 0.55426,1.78368 -0.5744,2.61001 -1.65267,4.3937 z"
       id="path23259"
       sodipodi:nodetypes="ccc" /></g></svg>
